<svg width="105" height="116" viewBox="0 0 105 116" fill="none" xmlns="http://www.w3.org/2000/svg">
<path d="M8.21741 6.52285C12.419 2.08842 18.7504 0.172006 24.7422 0.545585C30.7729 1.22482 36.7016 2.8938 42.15 5.57677C43.7511 6.387 45.454 6.96435 47.0988 7.67755C43.6444 12.6942 40.1609 17.7011 36.5512 22.6159C36.4542 22.742 36.265 22.9943 36.1679 23.1204C34.1399 21.5631 31.8063 20.4714 29.6424 19.1081C26.1929 17.0753 22.7918 14.9551 19.3083 12.9756C15.6065 10.8311 12.0987 8.34708 8.21741 6.52285Z" fill="#026564"/>
<path d="M73.2831 1.70028C78.3773 0.686279 83.6996 0.404882 88.8036 1.48195C88.1632 1.4577 87.5228 1.43829 86.8823 1.43344C81.4921 14.6446 75.9952 27.8217 70.3769 40.9406C70.144 41.3967 69.9063 41.8528 69.6589 42.304C60.2272 36.5693 50.5336 31.2664 41.034 25.6385C39.6707 24.8137 38.2297 24.1199 36.8373 23.3436C36.7645 23.1641 36.6238 22.8002 36.551 22.6159C40.1607 17.7011 43.6442 12.6942 47.0986 7.67755C48.2145 7.99776 49.3546 8.24034 50.5045 8.41985C51.9308 8.75462 53.4349 8.81284 54.8564 8.4053C55.5211 8.29371 56.1906 8.20153 56.8601 8.10934C59.8973 7.13901 62.6094 5.43122 65.5252 4.18434C68.019 3.08786 70.6244 2.27278 73.2831 1.70028Z" fill="#491AFE"/>
<path d="M86.8824 1.43347C87.5228 1.43832 88.1633 1.45773 88.8037 1.48199C94.6645 2.83561 98.7254 8.00264 100.865 13.3589C101.209 14.3098 101.539 15.2656 101.845 16.2311C102.607 18.589 103.058 21.0294 103.519 23.4552L103.495 23.6202C103.354 24.2946 103.412 25.032 103.126 25.6627C102.476 26.211 101.699 26.57 100.947 26.9533C93.8931 30.3349 86.9358 33.9203 79.9106 37.3504C76.7667 38.9855 73.5791 40.5283 70.3091 41.8868C70.3236 41.649 70.3576 41.1784 70.377 40.9407C75.9952 27.8217 81.4922 14.6446 86.8824 1.43347Z" fill="#8559FF"/>
<path d="M1.09995 23.0573C1.70641 17.017 4.12254 11.0446 8.21736 6.52283C12.0987 8.34706 15.6065 10.8311 19.3083 12.9756C22.7918 14.955 26.1928 17.0752 29.6424 19.1081C31.8062 20.4714 34.1399 21.563 36.1679 23.1204C36.1533 23.266 36.1242 23.5522 36.1097 23.6929C34.9744 24.8379 33.9361 26.0702 33.0531 27.419C25.7465 37.4183 18.5417 47.4855 11.1623 57.4266C9.30414 59.9786 7.58179 62.6373 5.46646 64.9953C3.1134 56.825 1.49294 48.4219 0.72152 39.9509C0.512898 34.4491 0.449826 28.9327 0.842812 23.4358L1.09995 23.0573Z" fill="#00845B"/>
<path d="M36.1679 23.1204C36.2649 22.9943 36.4541 22.742 36.5512 22.6158C36.6239 22.8002 36.7647 23.1641 36.8374 23.3436C37.5264 25.1872 38.7005 26.7786 39.7193 28.4427C43.2465 34.2696 46.8901 40.0188 50.4124 45.8505C51.1402 46.9422 51.7078 48.2618 52.8722 48.9702C58.5584 47.0101 64.0747 44.5406 69.659 42.304L69.4213 42.7309C66.1464 47.864 62.5125 52.7545 59.1357 57.8245C56.6759 55.19 54.8711 52.0364 52.4889 49.3389C45.5801 52.8321 38.6471 56.2913 31.7674 59.8379L31.5151 59.9883C32.9367 47.8737 34.7512 35.8124 36.1097 23.6929C36.1242 23.5522 36.1533 23.266 36.1679 23.1204Z" fill="#0164BD"/>
<path d="M36.8374 23.3436C38.2298 24.1199 39.6708 24.8137 41.0341 25.6385C50.5337 31.2664 60.2273 36.5693 69.659 42.304C64.0747 44.5406 58.5584 47.0101 52.8722 48.9702C51.7078 48.2618 51.1401 46.9422 50.4124 45.8506C46.8901 40.0188 43.2465 34.2696 39.7193 28.4427C38.7004 26.7786 37.5263 25.1873 36.8374 23.3436Z" fill="#231EF0"/>
<path d="M103.495 23.6201C104.086 25.1775 103.364 27.1424 103.917 28.826C104.111 31.737 104.096 34.6674 103.907 37.5784C103.626 41.1444 103.422 44.7104 102.951 48.2569C102.325 51.7647 101.437 55.2385 101.054 58.7802C100.952 58.7657 100.753 58.7366 100.656 58.7172C98.9777 58.3484 97.561 57.3199 96.057 56.5388C88.0711 52.2159 80.0659 47.9319 72.1042 43.5654C71.3862 43.1869 70.6487 42.8522 69.887 42.5708L69.4213 42.7309L69.659 42.3039C69.9064 41.8527 70.1442 41.3967 70.377 40.9406C70.3576 41.1783 70.3237 41.649 70.3091 41.8867C73.5792 40.5282 76.7667 38.9854 79.9106 37.3504C86.9358 33.9202 93.8931 30.3348 100.947 26.9532C101.699 26.5699 102.476 26.2109 103.126 25.6627C103.412 25.032 103.354 24.2945 103.495 23.6201Z" fill="#6131FD"/>
<path d="M33.0531 27.4191C33.9361 26.0703 34.9743 24.838 36.1096 23.693C34.7512 35.8125 32.9366 47.8738 31.5151 59.9884C23.4468 63.7727 15.4221 67.6589 7.33918 71.4092C6.5435 69.323 5.97586 67.164 5.46643 64.9953C7.58176 62.6374 9.30411 59.9787 11.1623 57.4267C18.5417 47.4856 25.7464 37.4184 33.0531 27.4191Z" fill="#026463"/>
<path d="M69.4212 42.731L69.887 42.5709C75.1462 61.5167 80.5559 80.4189 85.9364 99.3258L86.1062 99.9323C85.98 99.7771 85.7277 99.4762 85.6016 99.321C85.1455 98.535 84.7234 97.7345 84.248 96.9631C76.9705 85.78 69.7851 74.5338 62.5222 63.341C61.3869 61.5555 60.271 59.7507 58.9756 58.072C59.0144 58.009 59.0969 57.8828 59.1357 57.8246C62.5125 52.7546 66.1464 47.8641 69.4212 42.731Z" fill="#FE6423"/>
<path d="M69.8871 42.5709C70.6488 42.8523 71.3863 43.1871 72.1043 43.5655C80.0659 47.932 88.0712 52.2161 96.057 56.5389C97.5611 57.32 98.9777 58.3486 100.656 58.7173C100.826 60.134 100.176 61.4342 99.8753 62.783C99.1087 66.0725 98.1093 69.294 97.1001 72.5106C96.94 73.0055 96.7945 73.5004 96.6489 73.9952C96.0182 75.9214 95.2856 77.8087 94.6792 79.7445C94.0727 81.394 93.3838 83.0145 92.8064 84.6786C92.1902 86.3137 91.4965 87.9147 90.8318 89.5303C90.3224 90.8015 89.779 92.0677 89.1871 93.3098C88.338 95.4688 87.2367 97.521 86.3828 99.68L85.9364 99.3259C80.5559 80.4189 75.1463 61.5167 69.8871 42.5709Z" fill="#FD00D7"/>
<path d="M31.7675 59.838C38.6471 56.2914 45.5802 52.8322 52.489 49.339C54.8711 52.0365 56.676 55.1901 59.1358 57.8246C59.097 57.8828 59.0145 58.0089 58.9757 58.072C55.7833 63.3409 52.5375 68.5807 49.3014 73.8206L49.0977 73.6604C44.9155 70.4923 40.777 67.2611 36.6822 63.9862C34.9696 62.6908 33.2812 61.3614 31.7675 59.838Z" fill="#008250"/>
<path d="M49.3014 73.8204C52.5375 68.5806 55.7832 63.3408 58.9756 58.0719C60.271 59.7506 61.3869 61.5554 62.5222 63.3408C69.7852 74.5336 76.9705 85.7798 84.248 96.963C84.7235 97.7344 85.1456 98.5349 85.6016 99.3209C83.8162 98.4912 82.1618 97.4239 80.5705 96.2789C74.8552 92.2617 69.0089 88.4337 63.2112 84.5475C61.4937 83.3928 59.9411 81.8936 57.884 81.3551C56.705 79.9578 55.5309 78.4926 53.8668 77.5951C52.2415 76.4598 50.8103 75.0867 49.3014 73.8204Z" fill="#C51019"/>
<path d="M7.33923 71.4091C15.4221 67.6588 23.4468 63.7726 31.5151 59.9883C29.6812 73.2285 27.6387 86.4396 25.7416 99.6702C24.9945 103.362 24.8538 107.156 23.9029 110.81C23.7864 110.766 23.5487 110.679 23.4322 110.635C19.7838 104.143 16.9164 97.2395 14.0394 90.384C13.3019 88.4337 12.4335 86.5415 11.7688 84.5669C10.3521 80.899 9.13435 77.1632 7.8341 73.4517C7.64974 72.7773 7.49449 72.0932 7.33923 71.4091Z" fill="#D5F510"/>
<path d="M31.5151 59.9883L31.7674 59.8379C33.2811 61.3613 34.9695 62.6907 36.6821 63.9861C40.777 67.261 44.9154 70.4922 49.0976 73.6603C43.6006 82.2915 37.6379 90.6218 32.0294 99.185C29.3998 103.066 26.8332 106.996 24.2133 110.873L23.9028 110.81C24.8538 107.156 24.9945 103.362 25.7416 99.6702C27.6386 86.4396 29.6812 73.2285 31.5151 59.9883Z" fill="#069B3F"/>
<path d="M49.0977 73.6603L49.3014 73.8204C50.8103 75.0867 52.2415 76.4597 53.8669 77.595C52.4308 77.561 50.8249 77.3427 49.6265 78.313C46.3904 80.7146 44.7894 84.6154 43.5231 88.3075C42.0094 92.4411 41.2525 96.8028 40.6606 101.15C40.1172 104.721 39.666 108.471 37.5943 111.542C36.5997 113.124 35.1976 114.584 33.32 115.04C33.2666 115.123 33.155 115.283 33.1017 115.365C29.5599 115.981 26.4355 113.91 24.1406 111.44C24.16 111.295 24.194 111.013 24.2134 110.873C26.8333 106.996 29.3998 103.066 32.0295 99.185C37.638 90.6217 43.6007 82.2914 49.0977 73.6603Z" fill="#8CBE3D"/>
<path d="M57.8839 81.3551C59.941 81.8936 61.4936 83.3928 63.2111 84.5475C69.0088 88.4337 74.8551 92.2617 80.5704 96.2789C82.1617 97.4239 83.8161 98.4912 85.6015 99.3209C85.7277 99.4761 85.98 99.7769 86.1061 99.9322L86.2323 100.083C84.2237 103.6 82.6857 107.375 80.5558 110.824C78.8092 113.599 75.7235 115.72 72.3274 115.356C68.4654 114.448 66.059 110.761 65.3361 107.064C64.6472 103.454 63.769 99.8788 63.0655 96.2692C62.0127 91.0924 60.4407 85.9982 57.8839 81.3551Z" fill="#F60707"/>
</svg>
